<svg xmlns="http://www.w3.org/2000/svg" viewBox="0 0 400 300" fill="none">
  <!-- Sky gradient background -->
  <rect width="400" height="300" fill="#F0F9FF"/>
  <!-- Sun -->
  <circle cx="350" cy="50" r="32" fill="#FCD34D"/>
  <g stroke="#FCD34D" stroke-width="2.5" stroke-linecap="round">
    <line x1="350" y1="6" x2="350" y2="0"/>
    <line x1="350" y1="100" x2="350" y2="94"/>
    <line x1="306" y1="50" x2="300" y2="50"/>
    <line x1="394" y1="50" x2="388" y2="50"/>
    <line x1="319" y1="19" x2="315" y2="15"/>
    <line x1="385" y1="85" x2="381" y2="81"/>
    <line x1="381" y1="19" x2="385" y2="15"/>
    <line x1="315" y1="85" x2="319" y2="81"/>
  </g>
  <!-- Ground -->
  <rect x="0" y="248" width="400" height="52" fill="#D1FAE5"/>
  <!-- Building body -->
  <rect x="60" y="110" width="280" height="138" fill="#F8FAFC"/>
  <rect x="60" y="110" width="280" height="138" stroke="#CBD5E1" stroke-width="2"/>
  <!-- Building floors lines -->
  <line x1="60" y1="152" x2="340" y2="152" stroke="#E2E8F0" stroke-width="1.5"/>
  <line x1="60" y1="194" x2="340" y2="194" stroke="#E2E8F0" stroke-width="1.5"/>
  <!-- Flat roof with solar panels -->
  <rect x="60" y="96" width="280" height="14" fill="#E2E8F0"/>
  <!-- Row 1 panels -->
  <rect x="72"  y="72" width="36" height="24" rx="2" fill="#1E3A5F"/><line x1="90"  y1="72" x2="90"  y2="96" stroke="#3B82F6" stroke-width="0.8"/><line x1="72"  y1="84" x2="108" y2="84" stroke="#3B82F6" stroke-width="0.8"/>
  <rect x="114" y="72" width="36" height="24" rx="2" fill="#1E3A5F"/><line x1="132" y1="72" x2="132" y2="96" stroke="#3B82F6" stroke-width="0.8"/><line x1="114" y1="84" x2="150" y2="84" stroke="#3B82F6" stroke-width="0.8"/>
  <rect x="156" y="72" width="36" height="24" rx="2" fill="#1E3A5F"/><line x1="174" y1="72" x2="174" y2="96" stroke="#3B82F6" stroke-width="0.8"/><line x1="156" y1="84" x2="192" y2="84" stroke="#3B82F6" stroke-width="0.8"/>
  <rect x="198" y="72" width="36" height="24" rx="2" fill="#1E3A5F"/><line x1="216" y1="72" x2="216" y2="96" stroke="#3B82F6" stroke-width="0.8"/><line x1="198" y1="84" x2="234" y2="84" stroke="#3B82F6" stroke-width="0.8"/>
  <rect x="240" y="72" width="36" height="24" rx="2" fill="#1E3A5F"/><line x1="258" y1="72" x2="258" y2="96" stroke="#3B82F6" stroke-width="0.8"/><line x1="240" y1="84" x2="276" y2="84" stroke="#3B82F6" stroke-width="0.8"/>
  <rect x="282" y="72" width="36" height="24" rx="2" fill="#1E3A5F"/><line x1="300" y1="72" x2="300" y2="96" stroke="#3B82F6" stroke-width="0.8"/><line x1="282" y1="84" x2="318" y2="84" stroke="#3B82F6" stroke-width="0.8"/>
  <!-- Windows floor 1 -->
  <rect x="80"  y="120" width="36" height="22" rx="2" fill="#BAE6FD"/><line x1="98"  y1="120" x2="98"  y2="142" stroke="#7DD3FC" stroke-width="1"/><line x1="80"  y1="131" x2="116" y2="131" stroke="#7DD3FC" stroke-width="1"/>
  <rect x="130" y="120" width="36" height="22" rx="2" fill="#BAE6FD"/><line x1="148" y1="120" x2="148" y2="142" stroke="#7DD3FC" stroke-width="1"/><line x1="130" y1="131" x2="166" y2="131" stroke="#7DD3FC" stroke-width="1"/>
  <rect x="180" y="120" width="36" height="22" rx="2" fill="#BAE6FD"/><line x1="198" y1="120" x2="198" y2="142" stroke="#7DD3FC" stroke-width="1"/><line x1="180" y1="131" x2="216" y2="131" stroke="#7DD3FC" stroke-width="1"/>
  <rect x="230" y="120" width="36" height="22" rx="2" fill="#BAE6FD"/><line x1="248" y1="120" x2="248" y2="142" stroke="#7DD3FC" stroke-width="1"/><line x1="230" y1="131" x2="266" y2="131" stroke="#7DD3FC" stroke-width="1"/>
  <rect x="280" y="120" width="36" height="22" rx="2" fill="#BAE6FD"/><line x1="298" y1="120" x2="298" y2="142" stroke="#7DD3FC" stroke-width="1"/><line x1="280" y1="131" x2="316" y2="131" stroke="#7DD3FC" stroke-width="1"/>
  <!-- Windows floor 2 -->
  <rect x="80"  y="162" width="36" height="22" rx="2" fill="#BAE6FD"/><line x1="98"  y1="162" x2="98"  y2="184" stroke="#7DD3FC" stroke-width="1"/>
  <rect x="130" y="162" width="36" height="22" rx="2" fill="#BAE6FD"/>
  <rect x="180" y="162" width="36" height="22" rx="2" fill="#BAE6FD"/>
  <rect x="230" y="162" width="36" height="22" rx="2" fill="#BAE6FD"/>
  <rect x="280" y="162" width="36" height="22" rx="2" fill="#BAE6FD"/>
  <!-- Entry door -->
  <rect x="170" y="212" width="60" height="36" rx="3" fill="#F97316"/>
  <circle cx="185" cy="232" r="3" fill="#FFF"/>
  <!-- Trees -->
  <rect x="20" y="200" width="8" height="48" fill="#78350F"/>
  <ellipse cx="24" cy="192" rx="22" ry="26" fill="#16A34A"/>
  <rect x="372" y="200" width="8" height="48" fill="#78350F"/>
  <ellipse cx="376" cy="192" rx="22" ry="26" fill="#16A34A"/>
</svg>
