<svg xmlns="http://www.w3.org/2000/svg" viewBox="0 0 400 300" fill="none">
  <!-- Sky -->
  <rect width="400" height="300" fill="#ECFDF5"/>
  <!-- Sun -->
  <circle cx="60" cy="55" r="34" fill="#FCD34D"/>
  <g stroke="#FCD34D" stroke-width="2.5" stroke-linecap="round">
    <line x1="60" y1="9" x2="60" y2="3"/>
    <line x1="60" y1="107" x2="60" y2="101"/>
    <line x1="14" y1="55" x2="8" y2="55"/>
    <line x1="106" y1="55" x2="112" y2="55"/>
    <line x1="27" y1="22" x2="23" y2="18"/>
    <line x1="93" y1="88" x2="97" y2="92"/>
    <line x1="93" y1="22" x2="97" y2="18"/>
    <line x1="27" y1="88" x2="23" y2="92"/>
  </g>
  <!-- Ground -->
  <rect x="0" y="240" width="400" height="60" fill="#D1FAE5"/>
  <rect x="0" y="238" width="400" height="6" fill="#A7F3D0"/>
  <!-- Clouds -->
  <ellipse cx="280" cy="40" rx="40" ry="18" fill="white"/>
  <ellipse cx="310" cy="34" rx="26" ry="16" fill="white"/>
  <ellipse cx="258" cy="36" rx="20" ry="14" fill="white"/>
  <!-- MW farm: rows of solar panels -->
  <!-- Row 1 (front, largest) -->
  <g>
    <rect x="30"  y="196" width="56" height="36" rx="3" fill="#1E3A5F" stroke="#3B82F6" stroke-width="1"/>
    <line x1="58"  y1="196" x2="58"  y2="232" stroke="#60A5FA" stroke-width="1"/>
    <line x1="30"  y1="214" x2="86"  y2="214" stroke="#60A5FA" stroke-width="1"/>
    <rect x="100" y="196" width="56" height="36" rx="3" fill="#1E3A5F" stroke="#3B82F6" stroke-width="1"/>
    <line x1="128" y1="196" x2="128" y2="232" stroke="#60A5FA" stroke-width="1"/>
    <line x1="100" y1="214" x2="156" y2="214" stroke="#60A5FA" stroke-width="1"/>
    <rect x="170" y="196" width="56" height="36" rx="3" fill="#1E3A5F" stroke="#3B82F6" stroke-width="1"/>
    <line x1="198" y1="196" x2="198" y2="232" stroke="#60A5FA" stroke-width="1"/>
    <line x1="170" y1="214" x2="226" y2="214" stroke="#60A5FA" stroke-width="1"/>
    <rect x="240" y="196" width="56" height="36" rx="3" fill="#1E3A5F" stroke="#3B82F6" stroke-width="1"/>
    <line x1="268" y1="196" x2="268" y2="232" stroke="#60A5FA" stroke-width="1"/>
    <line x1="240" y1="214" x2="296" y2="214" stroke="#60A5FA" stroke-width="1"/>
    <rect x="310" y="196" width="56" height="36" rx="3" fill="#1E3A5F" stroke="#3B82F6" stroke-width="1"/>
    <line x1="338" y1="196" x2="338" y2="232" stroke="#60A5FA" stroke-width="1"/>
    <line x1="310" y1="214" x2="366" y2="214" stroke="#60A5FA" stroke-width="1"/>
  </g>
  <!-- Row 2 (middle) -->
  <g>
    <rect x="30"  y="154" width="44" height="30" rx="2" fill="#1E3A5F" stroke="#3B82F6" stroke-width="1"/>
    <line x1="52"  y1="154" x2="52"  y2="184" stroke="#60A5FA" stroke-width="0.8"/>
    <line x1="30"  y1="169" x2="74"  y2="169" stroke="#60A5FA" stroke-width="0.8"/>
    <rect x="86"  y="154" width="44" height="30" rx="2" fill="#1E3A5F" stroke="#3B82F6" stroke-width="1"/>
    <line x1="108" y1="154" x2="108" y2="184" stroke="#60A5FA" stroke-width="0.8"/>
    <line x1="86"  y1="169" x2="130" y2="169" stroke="#60A5FA" stroke-width="0.8"/>
    <rect x="142" y="154" width="44" height="30" rx="2" fill="#1E3A5F" stroke="#3B82F6" stroke-width="1"/>
    <line x1="164" y1="154" x2="164" y2="184" stroke="#60A5FA" stroke-width="0.8"/>
    <rect x="198" y="154" width="44" height="30" rx="2" fill="#1E3A5F" stroke="#3B82F6" stroke-width="1"/>
    <line x1="220" y1="154" x2="220" y2="184" stroke="#60A5FA" stroke-width="0.8"/>
    <rect x="254" y="154" width="44" height="30" rx="2" fill="#1E3A5F" stroke="#3B82F6" stroke-width="1"/>
    <rect x="310" y="154" width="44" height="30" rx="2" fill="#1E3A5F" stroke="#3B82F6" stroke-width="1"/>
  </g>
  <!-- Row 3 (back, smallest) -->
  <g>
    <rect x="40"  y="122" width="34" height="22" rx="2" fill="#1E3A5F" stroke="#3B82F6" stroke-width="0.8"/>
    <rect x="84"  y="122" width="34" height="22" rx="2" fill="#1E3A5F" stroke="#3B82F6" stroke-width="0.8"/>
    <rect x="128" y="122" width="34" height="22" rx="2" fill="#1E3A5F" stroke="#3B82F6" stroke-width="0.8"/>
    <rect x="172" y="122" width="34" height="22" rx="2" fill="#1E3A5F" stroke="#3B82F6" stroke-width="0.8"/>
    <rect x="216" y="122" width="34" height="22" rx="2" fill="#1E3A5F" stroke="#3B82F6" stroke-width="0.8"/>
    <rect x="260" y="122" width="34" height="22" rx="2" fill="#1E3A5F" stroke="#3B82F6" stroke-width="0.8"/>
    <rect x="304" y="122" width="34" height="22" rx="2" fill="#1E3A5F" stroke="#3B82F6" stroke-width="0.8"/>
  </g>
  <!-- Power tower -->
  <line x1="380" y1="80" x2="380" y2="240" stroke="#64748B" stroke-width="4"/>
  <polygon points="368,80 392,80 384,96 376,96" fill="#94A3B8"/>
  <line x1="368" y1="110" x2="392" y2="110" stroke="#94A3B8" stroke-width="2"/>
  <!-- Power lines -->
  <path d="M 380 88 Q 300 120 200 100" stroke="#94A3B8" stroke-width="1.5" fill="none"/>
  <path d="M 380 110 Q 300 140 200 122" stroke="#94A3B8" stroke-width="1.5" fill="none"/>
</svg>
